<mxfile host="app.diagrams.net" modified="2020-09-17T12:42:31.851Z" agent="5.0 (Macintosh; Intel Mac OS X 10_15_6) AppleWebKit/537.36 (KHTML, like Gecko) Chrome/85.0.4183.102 Safari/537.36" etag="KTe39ozfndAbmQs5pdHf" version="13.6.6" type="github">
  <diagram id="GJKYoFsXAzMQX1VVH416" name="Page-1">
    <mxGraphModel dx="1426" dy="740" grid="1" gridSize="10" guides="1" tooltips="1" connect="1" arrows="1" fold="1" page="1" pageScale="1" pageWidth="827" pageHeight="1169" math="0" shadow="0">
      <root>
        <mxCell id="0" />
        <mxCell id="1" parent="0" />
        <mxCell id="byStPaCHuMstt8Y6tN4p-64" value="" style="shape=ext;rounded=1;html=1;whiteSpace=wrap;dashed=1;dashPattern=1 4;fillColor=#E6E6E6;" vertex="1" parent="1">
          <mxGeometry x="1007" y="320" width="152" height="160" as="geometry" />
        </mxCell>
        <mxCell id="byStPaCHuMstt8Y6tN4p-5" style="edgeStyle=orthogonalEdgeStyle;rounded=0;orthogonalLoop=1;jettySize=auto;html=1;exitX=1;exitY=0.5;exitDx=0;exitDy=0;entryX=0;entryY=0.5;entryDx=0;entryDy=0;fillColor=#E6E6E6;" edge="1" parent="1" source="byStPaCHuMstt8Y6tN4p-1" target="byStPaCHuMstt8Y6tN4p-2">
          <mxGeometry relative="1" as="geometry" />
        </mxCell>
        <mxCell id="byStPaCHuMstt8Y6tN4p-1" value="变更发起" style="rounded=1;whiteSpace=wrap;html=1;fillColor=#E6E6E6;" vertex="1" parent="1">
          <mxGeometry x="130" y="210" width="120" height="60" as="geometry" />
        </mxCell>
        <mxCell id="byStPaCHuMstt8Y6tN4p-6" style="edgeStyle=orthogonalEdgeStyle;rounded=0;orthogonalLoop=1;jettySize=auto;html=1;exitX=1;exitY=0.5;exitDx=0;exitDy=0;entryX=0;entryY=0.5;entryDx=0;entryDy=0;fillColor=#E6E6E6;" edge="1" parent="1" source="byStPaCHuMstt8Y6tN4p-2" target="byStPaCHuMstt8Y6tN4p-3">
          <mxGeometry relative="1" as="geometry" />
        </mxCell>
        <mxCell id="byStPaCHuMstt8Y6tN4p-2" value="前置防御" style="rounded=1;whiteSpace=wrap;html=1;fillColor=#E6E6E6;" vertex="1" parent="1">
          <mxGeometry x="370" y="210" width="120" height="60" as="geometry" />
        </mxCell>
        <mxCell id="byStPaCHuMstt8Y6tN4p-7" style="edgeStyle=orthogonalEdgeStyle;rounded=0;orthogonalLoop=1;jettySize=auto;html=1;exitX=1;exitY=0.5;exitDx=0;exitDy=0;entryX=0;entryY=0.5;entryDx=0;entryDy=0;fillColor=#E6E6E6;" edge="1" parent="1" source="byStPaCHuMstt8Y6tN4p-3" target="byStPaCHuMstt8Y6tN4p-4">
          <mxGeometry relative="1" as="geometry" />
        </mxCell>
        <mxCell id="byStPaCHuMstt8Y6tN4p-13" style="edgeStyle=orthogonalEdgeStyle;rounded=0;orthogonalLoop=1;jettySize=auto;html=1;exitX=0.5;exitY=1;exitDx=0;exitDy=0;entryX=0.5;entryY=0;entryDx=0;entryDy=0;" edge="1" parent="1" source="byStPaCHuMstt8Y6tN4p-3" target="byStPaCHuMstt8Y6tN4p-11">
          <mxGeometry relative="1" as="geometry" />
        </mxCell>
        <mxCell id="byStPaCHuMstt8Y6tN4p-3" value="变更" style="rounded=1;whiteSpace=wrap;html=1;fillColor=#E6E6E6;" vertex="1" parent="1">
          <mxGeometry x="610" y="210" width="120" height="60" as="geometry" />
        </mxCell>
        <mxCell id="byStPaCHuMstt8Y6tN4p-4" value="后置防御" style="rounded=1;whiteSpace=wrap;html=1;fillColor=#E6E6E6;" vertex="1" parent="1">
          <mxGeometry x="850" y="210" width="120" height="60" as="geometry" />
        </mxCell>
        <mxCell id="byStPaCHuMstt8Y6tN4p-12" style="edgeStyle=orthogonalEdgeStyle;rounded=0;orthogonalLoop=1;jettySize=auto;html=1;exitX=0;exitY=0.5;exitDx=0;exitDy=0;" edge="1" parent="1" source="byStPaCHuMstt8Y6tN4p-11" target="byStPaCHuMstt8Y6tN4p-2">
          <mxGeometry relative="1" as="geometry" />
        </mxCell>
        <mxCell id="byStPaCHuMstt8Y6tN4p-16" style="edgeStyle=orthogonalEdgeStyle;rounded=0;orthogonalLoop=1;jettySize=auto;html=1;exitX=1;exitY=0.5;exitDx=0;exitDy=0;entryX=0;entryY=0.25;entryDx=0;entryDy=0;" edge="1" parent="1" source="byStPaCHuMstt8Y6tN4p-11" target="byStPaCHuMstt8Y6tN4p-64">
          <mxGeometry relative="1" as="geometry">
            <mxPoint x="1000" y="360" as="targetPoint" />
          </mxGeometry>
        </mxCell>
        <mxCell id="byStPaCHuMstt8Y6tN4p-14" value="2⃣️订阅变更进度" style="text;html=1;align=center;verticalAlign=middle;resizable=0;points=[];autosize=1;" vertex="1" parent="1">
          <mxGeometry x="665" y="300" width="100" height="20" as="geometry" />
        </mxCell>
        <mxCell id="byStPaCHuMstt8Y6tN4p-15" value="1⃣️提供预估影响面" style="text;html=1;align=center;verticalAlign=middle;resizable=0;points=[];autosize=1;" vertex="1" parent="1">
          <mxGeometry x="425" y="300" width="110" height="20" as="geometry" />
        </mxCell>
        <mxCell id="byStPaCHuMstt8Y6tN4p-17" value="3⃣️实时变更影响面" style="text;html=1;align=center;verticalAlign=middle;resizable=0;points=[];autosize=1;" vertex="1" parent="1">
          <mxGeometry x="1028" y="280" width="110" height="20" as="geometry" />
        </mxCell>
        <mxCell id="byStPaCHuMstt8Y6tN4p-24" value="&lt;span style=&quot;color: rgb(38 , 38 , 38) ; font-family: &amp;#34;chinese quote&amp;#34; , &amp;#34;segoe ui&amp;#34; , &amp;#34;roboto&amp;#34; , &amp;#34;pingfang sc&amp;#34; , &amp;#34;hiragino sans gb&amp;#34; , &amp;#34;microsoft yahei&amp;#34; , &amp;#34;helvetica neue&amp;#34; , &amp;#34;helvetica&amp;#34; , &amp;#34;arial&amp;#34; , sans-serif , &amp;#34;apple color emoji&amp;#34; ; font-size: 14px ; letter-spacing: 0.7px ; background-color: rgb(255 , 255 , 255)&quot;&gt;变更准入防线&lt;/span&gt;" style="shape=hexagon;perimeter=hexagonPerimeter2;whiteSpace=wrap;html=1;fixedSize=1;fillColor=#E6D0DE;" vertex="1" parent="1">
          <mxGeometry x="310" y="330" width="126" height="50" as="geometry" />
        </mxCell>
        <mxCell id="byStPaCHuMstt8Y6tN4p-25" value="&lt;span style=&quot;color: rgb(38 , 38 , 38) ; font-family: &amp;#34;chinese quote&amp;#34; , &amp;#34;segoe ui&amp;#34; , &amp;#34;roboto&amp;#34; , &amp;#34;pingfang sc&amp;#34; , &amp;#34;hiragino sans gb&amp;#34; , &amp;#34;microsoft yahei&amp;#34; , &amp;#34;helvetica neue&amp;#34; , &amp;#34;helvetica&amp;#34; , &amp;#34;arial&amp;#34; , sans-serif , &amp;#34;apple color emoji&amp;#34; ; font-size: 14px ; letter-spacing: 0.7px ; background-color: rgb(255 , 255 , 255)&quot;&gt;变更监控防线&lt;/span&gt;" style="shape=hexagon;perimeter=hexagonPerimeter2;whiteSpace=wrap;html=1;fixedSize=1;fillColor=#E6D0DE;" vertex="1" parent="1">
          <mxGeometry x="1019" y="330" width="126" height="50" as="geometry" />
        </mxCell>
        <mxCell id="byStPaCHuMstt8Y6tN4p-26" value="&lt;span style=&quot;color: rgb(38 , 38 , 38) ; font-family: &amp;#34;chinese quote&amp;#34; , &amp;#34;segoe ui&amp;#34; , &amp;#34;roboto&amp;#34; , &amp;#34;pingfang sc&amp;#34; , &amp;#34;hiragino sans gb&amp;#34; , &amp;#34;microsoft yahei&amp;#34; , &amp;#34;helvetica neue&amp;#34; , &amp;#34;helvetica&amp;#34; , &amp;#34;arial&amp;#34; , sans-serif , &amp;#34;apple color emoji&amp;#34; ; font-size: 14px ; letter-spacing: 0.7px ; background-color: rgb(255 , 255 , 255)&quot;&gt;变更资损防线&lt;/span&gt;" style="shape=hexagon;perimeter=hexagonPerimeter2;whiteSpace=wrap;html=1;fixedSize=1;fillColor=#E6D0DE;" vertex="1" parent="1">
          <mxGeometry x="1019" y="380" width="126" height="50" as="geometry" />
        </mxCell>
        <mxCell id="byStPaCHuMstt8Y6tN4p-27" value="&lt;span style=&quot;color: rgb(38 , 38 , 38) ; font-family: &amp;#34;chinese quote&amp;#34; , &amp;#34;segoe ui&amp;#34; , &amp;#34;roboto&amp;#34; , &amp;#34;pingfang sc&amp;#34; , &amp;#34;hiragino sans gb&amp;#34; , &amp;#34;microsoft yahei&amp;#34; , &amp;#34;helvetica neue&amp;#34; , &amp;#34;helvetica&amp;#34; , &amp;#34;arial&amp;#34; , sans-serif , &amp;#34;apple color emoji&amp;#34; ; font-size: 14px ; letter-spacing: 0.7px ; background-color: rgb(255 , 255 , 255)&quot;&gt;单笔高可用防线&lt;/span&gt;" style="shape=hexagon;perimeter=hexagonPerimeter2;whiteSpace=wrap;html=1;fixedSize=1;fillColor=#E6D0DE;" vertex="1" parent="1">
          <mxGeometry x="1019" y="430" width="126" height="50" as="geometry" />
        </mxCell>
        <mxCell id="byStPaCHuMstt8Y6tN4p-65" style="edgeStyle=none;rounded=0;orthogonalLoop=1;jettySize=auto;html=1;exitX=0.5;exitY=1;exitDx=0;exitDy=0;entryX=0.5;entryY=0;entryDx=0;entryDy=0;fillColor=#E6E6E6;" edge="1" parent="1" source="byStPaCHuMstt8Y6tN4p-11" target="byStPaCHuMstt8Y6tN4p-18">
          <mxGeometry relative="1" as="geometry" />
        </mxCell>
        <mxCell id="byStPaCHuMstt8Y6tN4p-11" value="RMC" style="shape=process;whiteSpace=wrap;html=1;backgroundOutline=1;fillColor=#B3B3B3;" vertex="1" parent="1">
          <mxGeometry x="610" y="330" width="120" height="60" as="geometry" />
        </mxCell>
        <mxCell id="byStPaCHuMstt8Y6tN4p-30" style="edgeStyle=orthogonalEdgeStyle;rounded=0;orthogonalLoop=1;jettySize=auto;html=1;exitX=1;exitY=0.5;exitDx=0;exitDy=0;entryX=0.5;entryY=1;entryDx=0;entryDy=0;curved=1;" edge="1" parent="1" source="byStPaCHuMstt8Y6tN4p-4" target="byStPaCHuMstt8Y6tN4p-4">
          <mxGeometry relative="1" as="geometry">
            <Array as="points">
              <mxPoint x="1020" y="240" />
              <mxPoint x="1020" y="340" />
              <mxPoint x="910" y="340" />
            </Array>
          </mxGeometry>
        </mxCell>
        <mxCell id="byStPaCHuMstt8Y6tN4p-18" value="影响面Session（变更id）" style="swimlane;html=1;childLayout=stackLayout;resizeParent=1;resizeParentMax=0;startSize=20;" vertex="1" parent="1">
          <mxGeometry x="485" y="425" width="370" height="160" as="geometry" />
        </mxCell>
        <mxCell id="byStPaCHuMstt8Y6tN4p-19" value="初始（预估）影响面" style="swimlane;html=1;startSize=20;" vertex="1" parent="byStPaCHuMstt8Y6tN4p-18">
          <mxGeometry y="20" width="130" height="140" as="geometry" />
        </mxCell>
        <mxCell id="byStPaCHuMstt8Y6tN4p-35" style="rounded=0;orthogonalLoop=1;jettySize=auto;html=1;exitX=1;exitY=1;exitDx=0;exitDy=0;entryX=0.5;entryY=0;entryDx=0;entryDy=0;" edge="1" parent="byStPaCHuMstt8Y6tN4p-19" source="byStPaCHuMstt8Y6tN4p-31" target="byStPaCHuMstt8Y6tN4p-33">
          <mxGeometry relative="1" as="geometry" />
        </mxCell>
        <mxCell id="byStPaCHuMstt8Y6tN4p-36" style="edgeStyle=none;rounded=0;orthogonalLoop=1;jettySize=auto;html=1;exitX=0;exitY=1;exitDx=0;exitDy=0;entryX=0.5;entryY=0;entryDx=0;entryDy=0;" edge="1" parent="byStPaCHuMstt8Y6tN4p-19" source="byStPaCHuMstt8Y6tN4p-31" target="byStPaCHuMstt8Y6tN4p-32">
          <mxGeometry relative="1" as="geometry" />
        </mxCell>
        <mxCell id="byStPaCHuMstt8Y6tN4p-31" value="" style="ellipse;shape=doubleEllipse;whiteSpace=wrap;html=1;aspect=fixed;fillColor=#E6E6E6;" vertex="1" parent="byStPaCHuMstt8Y6tN4p-19">
          <mxGeometry x="48" y="25" width="20" height="20" as="geometry" />
        </mxCell>
        <mxCell id="byStPaCHuMstt8Y6tN4p-32" value="" style="ellipse;shape=doubleEllipse;whiteSpace=wrap;html=1;aspect=fixed;" vertex="1" parent="byStPaCHuMstt8Y6tN4p-19">
          <mxGeometry x="28" y="65" width="20" height="20" as="geometry" />
        </mxCell>
        <mxCell id="byStPaCHuMstt8Y6tN4p-37" style="edgeStyle=none;rounded=0;orthogonalLoop=1;jettySize=auto;html=1;exitX=0.5;exitY=1;exitDx=0;exitDy=0;entryX=0.5;entryY=0;entryDx=0;entryDy=0;" edge="1" parent="byStPaCHuMstt8Y6tN4p-19" source="byStPaCHuMstt8Y6tN4p-33" target="byStPaCHuMstt8Y6tN4p-34">
          <mxGeometry relative="1" as="geometry" />
        </mxCell>
        <mxCell id="byStPaCHuMstt8Y6tN4p-39" style="edgeStyle=none;rounded=0;orthogonalLoop=1;jettySize=auto;html=1;exitX=0.5;exitY=1;exitDx=0;exitDy=0;entryX=0.5;entryY=0;entryDx=0;entryDy=0;" edge="1" parent="byStPaCHuMstt8Y6tN4p-19" source="byStPaCHuMstt8Y6tN4p-33" target="byStPaCHuMstt8Y6tN4p-40">
          <mxGeometry relative="1" as="geometry">
            <mxPoint x="88" y="105" as="targetPoint" />
          </mxGeometry>
        </mxCell>
        <mxCell id="byStPaCHuMstt8Y6tN4p-40" value="" style="ellipse;shape=doubleEllipse;whiteSpace=wrap;html=1;aspect=fixed;" vertex="1" parent="byStPaCHuMstt8Y6tN4p-19">
          <mxGeometry x="82" y="105" width="20" height="20" as="geometry" />
        </mxCell>
        <mxCell id="byStPaCHuMstt8Y6tN4p-34" value="" style="ellipse;shape=doubleEllipse;whiteSpace=wrap;html=1;aspect=fixed;" vertex="1" parent="byStPaCHuMstt8Y6tN4p-19">
          <mxGeometry x="54" y="105" width="20" height="20" as="geometry" />
        </mxCell>
        <mxCell id="byStPaCHuMstt8Y6tN4p-33" value="" style="ellipse;shape=doubleEllipse;whiteSpace=wrap;html=1;aspect=fixed;" vertex="1" parent="byStPaCHuMstt8Y6tN4p-19">
          <mxGeometry x="68" y="65" width="20" height="20" as="geometry" />
        </mxCell>
        <mxCell id="byStPaCHuMstt8Y6tN4p-20" value="灰度过程影响面" style="swimlane;html=1;startSize=20;" vertex="1" parent="byStPaCHuMstt8Y6tN4p-18">
          <mxGeometry x="130" y="20" width="120" height="140" as="geometry" />
        </mxCell>
        <mxCell id="byStPaCHuMstt8Y6tN4p-42" style="edgeStyle=none;rounded=0;orthogonalLoop=1;jettySize=auto;html=1;exitX=0;exitY=1;exitDx=0;exitDy=0;entryX=0.5;entryY=0;entryDx=0;entryDy=0;" edge="1" parent="byStPaCHuMstt8Y6tN4p-20" source="byStPaCHuMstt8Y6tN4p-43" target="byStPaCHuMstt8Y6tN4p-44">
          <mxGeometry relative="1" as="geometry" />
        </mxCell>
        <mxCell id="byStPaCHuMstt8Y6tN4p-43" value="" style="ellipse;shape=doubleEllipse;whiteSpace=wrap;html=1;aspect=fixed;fillColor=#E6E6E6;" vertex="1" parent="byStPaCHuMstt8Y6tN4p-20">
          <mxGeometry x="50" y="25" width="20" height="20" as="geometry" />
        </mxCell>
        <mxCell id="byStPaCHuMstt8Y6tN4p-44" value="" style="ellipse;shape=doubleEllipse;whiteSpace=wrap;html=1;aspect=fixed;" vertex="1" parent="byStPaCHuMstt8Y6tN4p-20">
          <mxGeometry x="30" y="65" width="20" height="20" as="geometry" />
        </mxCell>
        <mxCell id="byStPaCHuMstt8Y6tN4p-21" value="生产过程影响面" style="swimlane;html=1;startSize=20;" vertex="1" parent="byStPaCHuMstt8Y6tN4p-18">
          <mxGeometry x="250" y="20" width="120" height="140" as="geometry" />
        </mxCell>
        <mxCell id="byStPaCHuMstt8Y6tN4p-50" style="rounded=0;orthogonalLoop=1;jettySize=auto;html=1;exitX=1;exitY=1;exitDx=0;exitDy=0;entryX=0.5;entryY=0;entryDx=0;entryDy=0;" edge="1" parent="byStPaCHuMstt8Y6tN4p-21" source="byStPaCHuMstt8Y6tN4p-52" target="byStPaCHuMstt8Y6tN4p-56">
          <mxGeometry relative="1" as="geometry" />
        </mxCell>
        <mxCell id="byStPaCHuMstt8Y6tN4p-51" style="edgeStyle=none;rounded=0;orthogonalLoop=1;jettySize=auto;html=1;exitX=0;exitY=1;exitDx=0;exitDy=0;entryX=0.5;entryY=0;entryDx=0;entryDy=0;" edge="1" parent="byStPaCHuMstt8Y6tN4p-21" source="byStPaCHuMstt8Y6tN4p-52" target="byStPaCHuMstt8Y6tN4p-53">
          <mxGeometry relative="1" as="geometry" />
        </mxCell>
        <mxCell id="byStPaCHuMstt8Y6tN4p-53" value="" style="ellipse;shape=doubleEllipse;whiteSpace=wrap;html=1;aspect=fixed;" vertex="1" parent="byStPaCHuMstt8Y6tN4p-21">
          <mxGeometry x="10" y="65" width="20" height="20" as="geometry" />
        </mxCell>
        <mxCell id="byStPaCHuMstt8Y6tN4p-54" style="edgeStyle=none;rounded=0;orthogonalLoop=1;jettySize=auto;html=1;exitX=0.5;exitY=1;exitDx=0;exitDy=0;entryX=0.5;entryY=0;entryDx=0;entryDy=0;" edge="1" parent="byStPaCHuMstt8Y6tN4p-21" source="byStPaCHuMstt8Y6tN4p-56" target="byStPaCHuMstt8Y6tN4p-57">
          <mxGeometry relative="1" as="geometry" />
        </mxCell>
        <mxCell id="byStPaCHuMstt8Y6tN4p-55" style="edgeStyle=none;rounded=0;orthogonalLoop=1;jettySize=auto;html=1;exitX=0.5;exitY=1;exitDx=0;exitDy=0;entryX=0.5;entryY=0;entryDx=0;entryDy=0;" edge="1" parent="byStPaCHuMstt8Y6tN4p-21" source="byStPaCHuMstt8Y6tN4p-56" target="byStPaCHuMstt8Y6tN4p-58">
          <mxGeometry relative="1" as="geometry">
            <mxPoint x="70" y="105" as="targetPoint" />
          </mxGeometry>
        </mxCell>
        <mxCell id="byStPaCHuMstt8Y6tN4p-60" style="edgeStyle=none;rounded=0;orthogonalLoop=1;jettySize=auto;html=1;exitX=0.5;exitY=1;exitDx=0;exitDy=0;entryX=0.5;entryY=0;entryDx=0;entryDy=0;" edge="1" parent="byStPaCHuMstt8Y6tN4p-21" source="byStPaCHuMstt8Y6tN4p-56" target="byStPaCHuMstt8Y6tN4p-59">
          <mxGeometry relative="1" as="geometry" />
        </mxCell>
        <mxCell id="byStPaCHuMstt8Y6tN4p-59" value="" style="ellipse;shape=doubleEllipse;whiteSpace=wrap;html=1;aspect=fixed;" vertex="1" parent="byStPaCHuMstt8Y6tN4p-21">
          <mxGeometry x="90" y="105" width="20" height="20" as="geometry" />
        </mxCell>
        <mxCell id="byStPaCHuMstt8Y6tN4p-58" value="" style="ellipse;shape=doubleEllipse;whiteSpace=wrap;html=1;aspect=fixed;" vertex="1" parent="byStPaCHuMstt8Y6tN4p-21">
          <mxGeometry x="64" y="105" width="20" height="20" as="geometry" />
        </mxCell>
        <mxCell id="byStPaCHuMstt8Y6tN4p-57" value="" style="ellipse;shape=doubleEllipse;whiteSpace=wrap;html=1;aspect=fixed;" vertex="1" parent="byStPaCHuMstt8Y6tN4p-21">
          <mxGeometry x="36" y="105" width="20" height="20" as="geometry" />
        </mxCell>
        <mxCell id="byStPaCHuMstt8Y6tN4p-56" value="" style="ellipse;shape=doubleEllipse;whiteSpace=wrap;html=1;aspect=fixed;" vertex="1" parent="byStPaCHuMstt8Y6tN4p-21">
          <mxGeometry x="50" y="65" width="20" height="20" as="geometry" />
        </mxCell>
        <mxCell id="byStPaCHuMstt8Y6tN4p-52" value="" style="ellipse;shape=doubleEllipse;whiteSpace=wrap;html=1;aspect=fixed;fillColor=#E6E6E6;" vertex="1" parent="byStPaCHuMstt8Y6tN4p-21">
          <mxGeometry x="30" y="25" width="20" height="20" as="geometry" />
        </mxCell>
      </root>
    </mxGraphModel>
  </diagram>
</mxfile>
